PathFileType	4	(X/Y/Z)	6_coords_data.trc
DataRate	CameraRate	NumFrames	NumMarkers	Units	OrigDataRate	OrigDataStartFrame	OrigNumFrames
30.0	30.0	6	21	m	30.0	31	60
Frame#	Time	THUMB_TIP	THUMB_IP	THUMB_MCP	THUMB_CMC	INDEX_TIP	INDEX_DIP	INDEX_PIP	INDEX_MCP	MIDDLE_TIP	MIDDLE_DIP	MIDDLE_PIP	MIDDLE_MCP	RING_TIP	RING_DIP	RING_PIP	RING_MCP	PINKY_TIP	PINKY_DIP	PINKY_PIP	PINKY_MCP	WRIST
X1	Y1	Z1	X2	Y2	Z2	X3	Y3	Z3	X4	Y4	Z4	X5	Y5	Z5	X6	Y6	Z6	X7	Y7	Z7	X8	Y8	Z8	X9	Y9	Z9	X10	Y10	Z10	X11	Y11	Z11	X12	Y12	Z12	X13	Y13	Z13	X14	Y14	Z14	X15	Y15	Z15	X16	Y16	Z16	X17	Y17	Z17	X18	Y18	Z18	X19	Y19	Z19	X20	Y20	Z20	X21	Y21	Z21
30	1.0	0.003906009912490844	-0.10039299774169921	1.04352001953125	-0.021009000778198242	-0.09928079986572266	1.0448800048828124	-0.03620790100097656	-0.07657579803466796	1.04893994140625	-0.023671699523925782	-0.047147800445556644	1.0600799560546874	-0.007554120063781739	-0.1325679931640625	0.9675919799804688	-0.011613200187683106	-0.11232900238037109	0.9739849853515625	-0.016036399841308592	-0.09053079986572266	0.984406005859375	-0.01794499969482422	-0.0527864990234375	0.9999349975585937	-0.014996700286865235	-0.07335569763183594	1.054469970703125	-0.007124249935150146	-0.08322959899902344	1.0406400146484376	0.003828119993209839	-0.08796479797363281	1.015489990234375	0.006830780029296875	-0.04665959930419922	0.9991099853515625	-0.0030103600025177	-0.07203369903564454	1.0655400390625	0.006162499904632569	-0.08145290374755859	1.0496800537109374	0.021871099472045897	-0.08623470306396484	1.0253499755859374	0.02764179992675781	-0.04595529937744141	1.012780029296875	0.062372100830078124	-0.10414600372314453	0.9968300170898438	0.05381560134887695	-0.08931749725341796	1.0094500122070313	0.045820098876953125	-0.07512300109863282	1.019760009765625	0.03530099868774414	-0.050386001586914066	1.0341600341796875	-0.011637299537658692	-0.011399999618530273	1.0803800048828125
31	1.0333333333333334	0.006844009876251221	-0.09832589721679688	1.0409000244140625	-0.018204700469970702	-0.09831950378417968	1.0421400146484374	-0.03442530059814453	-0.07622129821777343	1.04668994140625	-0.02272209930419922	-0.04651110076904297	1.0588199462890624	-0.003834130048751831	-0.13096400451660156	0.9683040161132812	-0.00867053985595703	-0.11085299682617188	0.9738170166015625	-0.014072400093078613	-0.08876069641113281	0.9834619750976562	-0.017694900512695313	-0.050918701171875	0.9987080078125	-0.013282899856567382	-0.07226200103759765	1.0505400390625	-0.005021599769592286	-0.08189679718017578	1.0375799560546874	0.005600749969482422	-0.08586019897460938	1.0131099853515626	0.006983160018920898	-0.04414039993286133	0.9977329711914062	-0.000630469024181366	-0.0692426986694336	1.06293994140625	0.008279629707336426	-0.08029519653320312	1.0466199951171875	0.02364459991455078	-0.08365440368652344	1.0231300048828125	0.027661199569702147	-0.04311069869995117	1.011239990234375	0.06343809890747071	-0.10032199859619141	0.9946420288085938	0.05474359893798828	-0.08569090270996094	1.0073499755859374	0.04653620147705078	-0.0717957000732422	1.0178800048828125	0.03570840072631836	-0.04742929840087891	1.0326099853515625	-0.012173399925231934	-0.010597599983215331	1.07997998046875
32	1.0666666666666667	0.009994150161743164	-0.09705650329589843	1.0384200439453124	-0.014930700302124024	-0.09746489715576172	1.0401300048828126	-0.031988300323486325	-0.07608190155029297	1.045280029296875	-0.021896299362182618	-0.04618389892578125	1.0581199951171876	0.00038971701264381404	-0.129572998046875	0.9697540283203125	-0.00546412992477417	-0.10951000213623047	0.9744459838867188	-0.012079299926757813	-0.08739610290527344	0.9831209716796875	-0.01765019989013672	-0.0494474983215332	0.9975059814453126	-0.011115900039672852	-0.07087560272216797	1.0505899658203126	-0.002530420064926147	-0.08058409881591796	1.0365400390625	0.008006369590759278	-0.08355500030517578	1.0110900268554688	0.006642250061035157	-0.041417701721191406	0.9965579833984375	0.001588610053062439	-0.06668319702148437	1.0618499755859374	0.010803500175476074	-0.07865260314941407	1.0447900390625	0.0259822998046875	-0.08055799865722656	1.0211799926757812	0.02748040008544922	-0.0394552001953125	1.0096199951171876	0.06531510162353515	-0.09527539825439453	0.9922559814453125	0.05621500015258789	-0.08115550231933594	1.0050599975585937	0.04766799926757812	-0.06753669738769531	1.0159400024414063	0.03622819900512695	-0.04378279876708984	1.0309300537109376	-0.01275409984588623	-0.009703900337219238	1.07902001953125
33	1.1	0.01476930046081543	-0.09669210052490235	1.03472998046875	-0.010178600311279297	-0.0973740005493164	1.0369599609375	-0.028013299942016602	-0.07658950042724609	1.043489990234375	-0.02039150047302246	-0.04697470092773438	1.05647998046875	0.007263710021972656	-0.1274209976196289	0.97110498046875	-0.000200971007347106	-0.10789199829101563	0.9751580200195312	-0.008578610420227051	-0.08618080139160156	0.9828740234375	-0.01773069953918457	-0.048518501281738284	0.9965159912109375	-0.00793055009841919	-0.07084380340576171	1.04806005859375	0.000681209027767181	-0.07976129913330078	1.0351400146484375	0.011453399658203125	-0.0809437026977539	1.0084099731445313	0.006107450008392334	-0.038554100036621096	0.995239990234375	0.003912120103836059	-0.06991259765625	1.060239990234375	0.015009099960327149	-0.07886820220947266	1.04218994140625	0.02921619987487793	-0.07675150299072266	1.0185499877929687	0.02674370002746582	-0.035273101806640624	1.0078800048828125	0.06776570129394531	-0.08869760131835938	0.989708984375	0.05819039916992187	-0.07522579956054687	1.002760009765625	0.048939701080322265	-0.06216839981079102	1.0138900146484375	0.03652479934692383	-0.039318599700927735	1.0288499755859375	-0.014155699729919433	-0.009217869758605958	1.0786300048828126
34	1.1333333333333333	0.020185600280761717	-0.09390399932861328	1.03131005859375	-0.004820509910583496	-0.09644380187988282	1.0335899658203125	-0.02415769958496094	-0.07689749908447266	1.0413699951171875	-0.019076700210571288	-0.04736709976196289	1.0553699951171875	0.014908599853515624	-0.12445099639892578	0.971197998046875	0.0054986000061035155	-0.10563500213623046	0.9750139770507813	-0.0049409499168396	-0.08455460357666016	0.982155029296875	-0.017713899612426757	-0.04782770156860352	0.9955059814453125	-0.003921900033950806	-0.07015190124511719	1.0446300048828125	0.005058979988098144	-0.07777899932861328	1.0320999755859375	0.015087699890136719	-0.07764199829101562	1.00552001953125	0.0051852397918701176	-0.03580680084228516	0.9938300170898438	0.008454310417175292	-0.06733180236816406	1.057780029296875	0.019547000885009765	-0.07719439697265625	1.03943994140625	0.03247669982910156	-0.07216780090332031	1.0153800048828125	0.026003000259399413	-0.030846500396728517	1.0057999877929686	0.07033529663085937	-0.08128450012207031	0.9870280151367188	0.06014310073852539	-0.0684885025024414	1.0001500244140624	0.05029290008544922	-0.05614120101928711	1.0111400146484375	0.03647520065307617	-0.03458489990234375	1.0265	-0.015523699760437012	-0.008995820045471191	1.0775799560546875
35	1.1666666666666667	0.025737899780273438	-0.08956919860839843	1.0278599853515624	0.0012588399648666379	-0.09451979827880859	1.030510009765625	-0.01992609977722168	-0.07688970184326172	1.03927001953125	-0.017084699630737304	-0.048098499298095704	1.054	0.022974300384521484	-0.11974199676513672	0.9684219970703125	0.011552000045776367	-0.10208599853515625	0.97289501953125	-0.00092814701795578	-0.08234770202636718	0.9804010009765625	-0.017577199935913085	-0.04732339859008789	0.994760009765625	0.0007062810063362121	-0.06947579956054688	1.0451300048828125	0.010443900108337402	-0.07594409942626953	1.029260009765625	0.018895599365234376	-0.07380789947509765	1.0028900146484374	0.003934149980545044	-0.033009300231933596	0.9924600219726563	0.013984399795532227	-0.076118896484375	1.055530029296875	0.023964799880981446	-0.07336789703369141	1.0370799560546875	0.03598059844970703	-0.06653749847412109	1.0124500122070312	0.024627700805664062	-0.02604330062866211	1.0039000244140626	0.07369080352783203	-0.0721156005859375	0.98452099609375	0.06256159973144532	-0.06022589874267578	0.99760302734375	0.051540000915527344	-0.04886869812011719	1.0089000244140625	0.036099899291992185	-0.028879199981689453	1.024219970703125	-0.0169281005859375	-0.00897111988067627	1.07618994140625
